<?xml version="1.0" encoding="UTF-8" standalone="no"?>
<!-- Created with Inkscape (http://www.inkscape.org/) -->

<svg
   width="400"
   height="401"
   viewBox="0 0 105.83333 106.09791"
   version="1.1"
   id="svg5"
   inkscape:version="1.1 (c68e22c387, 2021-05-23)"
   sodipodi:docname="favicon.svg"
   inkscape:export-filename="C:\Users\patri\Documents\Programming\JS\Anoninetwork\anoninetwork-frontend\public\faviconpng.png"
   inkscape:export-xdpi="227.215"
   inkscape:export-ydpi="227.215"
   xmlns:inkscape="http://www.inkscape.org/namespaces/inkscape"
   xmlns:sodipodi="http://sodipodi.sourceforge.net/DTD/sodipodi-0.dtd"
   xmlns="http://www.w3.org/2000/svg"
   xmlns:svg="http://www.w3.org/2000/svg">
  <sodipodi:namedview
     id="namedview7"
     pagecolor="#ffffff"
     bordercolor="#666666"
     borderopacity="1.0"
     inkscape:pageshadow="2"
     inkscape:pageopacity="0"
     inkscape:pagecheckerboard="0"
     inkscape:document-units="mm"
     showgrid="false"
     inkscape:zoom="1.3416246"
     inkscape:cx="118.51303"
     inkscape:cy="230.31778"
     inkscape:window-width="2160"
     inkscape:window-height="1334"
     inkscape:window-x="-11"
     inkscape:window-y="-11"
     inkscape:window-maximized="1"
     inkscape:current-layer="layer1"
     units="px"
     width="300px" />
  <defs
     id="defs2" />
  <g
     inkscape:label="Livello 1"
     inkscape:groupmode="layer"
     id="layer1">
    <path
       style="fill:none;stroke:#000000;stroke-width:1.37496;stroke-linecap:butt;stroke-linejoin:miter;stroke-miterlimit:4;stroke-dasharray:none;stroke-opacity:1"
       d="M 11.328873,108.55215 20.572382,69.853866 43.020904,60.388096 42.228603,47.024659 32.985094,40.064534 31.136392,23.081835 41.700403,10.832016 51.472112,9.1615874"
       id="path925" />
    <path
       style="fill:none;stroke:#000000;stroke-width:1.37496;stroke-linecap:butt;stroke-linejoin:miter;stroke-miterlimit:4;stroke-dasharray:none;stroke-opacity:1"
       d="M 91.615358,108.55215 82.371846,69.853866 59.923324,60.388096 60.71562,47.024659 69.959131,40.064534 71.807835,23.081835 61.243824,10.832016 51.472112,9.1615874"
       id="path925-3" />
    <path
       style="fill:none;stroke:#000000;stroke-width:0.264583px;stroke-linecap:butt;stroke-linejoin:miter;stroke-opacity:1"
       d="M 11.328873,108.55215 H 91.615357"
       id="path1950" />
    <path
       style="fill:#000000;stroke:#000000;stroke-width:5.63426;stroke-miterlimit:4;stroke-dasharray:none;stroke-opacity:1"
       d="m 46.21263,409.2881 c 0,-0.42031 33.520541,-140.74366 33.938914,-142.07475 0.206596,-0.6573 17.85906,-8.48531 42.835446,-18.99543 l 42.48404,-17.87738 v -2.25132 c 0,-3.18145 -2.9859,-52.07697 -3.18775,-52.20093 -0.0915,-0.0562 -7.88092,-5.91792 -17.30979,-13.02604 -9.42887,-7.10811 -17.21263,-12.96419 -17.29726,-13.0135 -0.0846,-0.0494 -1.67302,-13.91624 -3.52976,-30.81538 l -3.37589,-30.725709 19.11281,-22.165563 c 10.51204,-12.19106 19.14502,-22.222355 19.1844,-22.291767 0.0393,-0.06941 8.05829,-1.497397 17.81982,-3.173301 l 17.74825,-3.047098 17.65392,3.048378 c 9.70966,1.676608 17.69298,3.104594 17.74072,3.173302 0.0477,0.06871 8.67985,10.102005 19.18249,22.296217 l 19.0957,22.171293 -3.37594,30.726118 c -1.85676,16.89937 -3.63369,30.90441 -3.94873,31.12231 -0.31503,0.2179 -8.09849,6.06845 -17.29658,13.00122 -9.19809,6.93277 -16.79868,12.65379 -16.89019,12.71338 -0.20204,0.13153 -3.18775,49.0293 -3.18775,52.20665 v 2.25089 l 42.49708,17.8778 42.49709,17.87781 0.70237,2.60878 c 0.38631,1.43483 7.94387,32.96377 16.79458,70.06431 8.8507,37.10054 16.28045,68.21022 16.51054,69.1326 l 0.41835,1.67708 H 194.62107 c -81.62464,0 -148.40844,-0.13049 -148.40844,-0.28997 z"
       id="path1989"
       transform="scale(0.26458333)"
       inkscape:export-filename="C:\Users\patri\Documents\Programming\JS\Anoninetwork\anoninetwork-frontend\public\favicon.png"
       inkscape:export-xdpi="227.215"
       inkscape:export-ydpi="227.215" />
  </g>
</svg>
